<svg xmlns="http://www.w3.org/2000/svg" xmlns:xlink="http://www.w3.org/1999/xlink" viewBox="0 0 500 500"><defs><clipPath id="freepik--clip-path--inject-18"><path d="M271.45,189.46c19.63,19.51,42.42,43.12,49.61,51s8.84,45.75,21.78,70.41a492.18,492.18,0,0,1,29.08,66.55l21.76-11.11s-22.07-63.22-27.89-104.43c-3.6-25.48-11.73-25.21-17.68-41.49-23.93-65.55-51-93.94-51-93.94" style="fill:#fff;stroke:#263238;stroke-linecap:round;stroke-linejoin:round"></path></clipPath><clipPath id="freepik--clip-path-2--inject-18"><path d="M364.29,366.24s15.3-7.39,20.73-6.42c0,0,6.34-3.41,9-2.75,0,0,1.92,11.27,12.08,16.66s26.84,1.79,34.75,3,7.18,6.45,7.18,6.45-27.76,23.36-68.13,35c0,0-7.45-14.55-10-37.56Z" style="fill:#4A8F4D;stroke:#263238;stroke-linecap:round;stroke-linejoin:round"></path></clipPath><clipPath id="freepik--clip-path-3--inject-18"><path d="M301.16,138.61s2.29,39.17-21.86,104.65c-6,16.26.38,21.31-13.36,43.08C243.73,321.52,219.66,384,219.66,384l-23.78-5.61a491.88,491.88,0,0,0,20.87-69.56c6.08-27.17,29.31-57.12,28.94-67.79s-2.47-43.43-4.83-71" style="fill:#fff;stroke:#263238;stroke-linecap:round;stroke-linejoin:round"></path></clipPath><clipPath id="freepik--clip-path-4--inject-18"><path d="M229,102.23s-18.34,26.27,7.77,74.27c0,0-6.18,5.07-.38,7.49,0,0-1.82,10.95,3.63,11.75s54-.34,61.2-9.42c2.17-2.73-.12-7.85-.12-7.85,13.35-52,7.67-72.69,7.67-72.69Z" style="fill:#263238;stroke:#263238;stroke-miterlimit:10"></path></clipPath><clipPath id="freepik--clip-path-5--inject-18"><path d="M381,149.82c0,.19-.09.37-.14.55a.29.29,0,0,0,0,.09c-.1.38-.2.73-.3,1.06a16,16,0,0,1-.58,1.63c-.05.13-.1.26-.16.38s-.12.27-.19.4a5.71,5.71,0,0,1-2.56,2.92l-.13.05s0,0,0,0l-.1,0a1.5,1.5,0,0,1-.49.09c-1.69,1.29-4,3.6-6,2.15a65.82,65.82,0,0,1-6.53,2.87,23.46,23.46,0,0,1-5.14,1.08c-.63,0-2.1-.53-3.38-3.51h0a.67.67,0,0,0,0-.12,13.55,13.55,0,0,1-.59-1.65c-.81-2.47-2-7.1-1.19-11.24-.35-.44-.72-.88-1.12-1.34-5.93-6.78-3-18-7.38-23.79-3-4-25.33-29.92-39.86-47.56,1.91.07,3.81.16,5.68.28a213.33,213.33,0,0,1,27.64,3.45c14.14,33.86,21.51,34.68,25.79,43.83C369.67,133.37,381.74,146.53,381,149.82Z" style="fill:#fff"></path></clipPath><clipPath id="freepik--clip-path-6--inject-18"><path d="M196.63,349.71c-.9,5.42-3.25,29.25-11.37,35.38-4.6,3.47-3.8,15.53-12.52,30.69-3,5.19,6.56,11.8,10.89,12.94h10.83s2.52-7.87-9.22-9.49c-2.65-.37,5.72-14.12,7.87-15.63,8-5.69,14.89-17.87,14.89-17.87s28.16-13.27,31.95-20.31Z" style="fill:#757575;stroke:#263238;stroke-linecap:round;stroke-linejoin:round"></path></clipPath><clipPath id="freepik--clip-path-7--inject-18"><path d="M123.52,336.12s20,26.66,14.08,35.45c-7.31,10.85,3.25,11.72,4.33,38.25.22,5.34,3.84,8.21,6.4,12.08,2.71,4.11,2.06,6.82,4.25,6.82h13.18c3-4.27.45-7.79-7.58-13.48-4.08-2.88-1.63-33.59-2.71-36.83s28.7-21.22,26-42.29Z" style="fill:#757575;stroke:#263238;stroke-linecap:round;stroke-linejoin:round"></path></clipPath><clipPath id="freepik--clip-path-8--inject-18"><path d="M122.78,277.31c13.54-8.76,93.89,10.66,99.3,7.95s13.54.49,13.54.49,8.12-5.36,10.29-5.36,10-2.26,10-2.26,16,36.38,27.9,46.13c0,0-15.16,41.12-22.2,44.95,0,0,7.52,38,16.72,43.38s11.6,7.52,18.1,7,10.29,6.5,4.33,8.13l-25.5,1c-3.79-1.08-3.68-5.9-8.55-7s-8.35-11.37-10.52-13.54-20.1-23.15-24.44-36.63c0,0-13.47,3.05-40-17-14.29-10.81-50.9-9-50.9-9s-20.58,24.78-35.2,32.73-13.77,32.12-13.77,32.12V421.2s12.2,2.05,10.58,7.52H79.65s-6-3.73-3.25-17.27-.87-29.77-.71-33.2S89.4,371,90.48,359.11s.83-50.45,14.37-61.82c0,0-13.48-17.27-2.65-36.77s39.53-8.51,34.12,3.87c0,0-4.88-4.8-13,0S122.78,277.31,122.78,277.31Z" style="fill:#757575;stroke:#263238;stroke-linecap:round;stroke-linejoin:round"></path></clipPath><clipPath id="freepik--clip-path-9--inject-18"><path d="M245.91,274c-4.06,4-.25,20.77,14.47,26.37,0,0,18.2,23.13,23.44,23.92,10.83,1.62,26.54-8.13,26.54-10.83S321.81,300,321.81,300s9.13-6.1,4.25-12.6,2.06-14.38-2.42-15.2c0,0-8.54-4.57-10.94-11.11-.15-.43-1.8.32-1.8.32s.54-2.35-1.68-2.54c0,0,.37-2.52-1.64-2.11a12.82,12.82,0,0,0-7-7.06c-5.19-2.32-21.13-2.31-28.17,3.61S248.07,271.85,245.91,274Z" style="fill:#757575;stroke:#263238;stroke-linecap:round;stroke-linejoin:round"></path></clipPath><clipPath id="freepik--clip-path-10--inject-18"><path d="M326.06,287.43c-4.87-6.49,2.05-14.38-2.42-15.2l-.18-.1a4,4,0,0,0,.3-2.71c-.42-1.3-3.19,2.5-4.46-2.43-.74-2.85-4.55-4.18-6-4.59a12.26,12.26,0,0,1-.56-1.29c-.15-.42-1.79.32-1.79.32-1.88,1.7-3.1,5.2-3.67,7.2-.07-2.37-.91-4.07-2.3-4l-.44-1.22c3.87-2.55.75-7.51-.75-9.18,0,0-2.82-1.09-6.38,2.57s-3,14.36-5.42,16c0,0,8.89,1.63,6.74,6s-7.29,11.92-2.68,15.72.77,7.58,2.68,11.91c1.52,3.43,2.71,10,1.58,13.43a4,4,0,0,1-1.56,1.75c6.46-2.71,11.65-6.59,11.65-8.15,0-2.71,11.44-13.39,11.44-13.39S330.93,293.93,326.06,287.43Z" style="fill:#4A8F4D;stroke:#263238;stroke-linecap:round;stroke-linejoin:round"></path></clipPath></defs><g id="freepik--Park--inject-18"><path d="M152.18,219.43a27.52,27.52,0,0,1,3.36-54.36" style="fill:none;stroke:#263238;stroke-linecap:round;stroke-linejoin:round"></path><path d="M157.82,165a27.52,27.52,0,1,1,0,55" style="fill:none;stroke:#263238;stroke-linecap:round;stroke-linejoin:round"></path><path d="M166.2,203.49c-6.51,1.5-18.12,1.41-20.45.37-3.21-1.43,3.38-7,3.38-7s-2.8-3,2.56-7.85Z" style="fill:none;stroke:#263238;stroke-linecap:round;stroke-linejoin:round"></path><path d="M170.62,201.13a1.75,1.75,0,0,1-.66.89L153.34,185.4a7,7,0,0,1,1.84-1.12,2.93,2.93,0,0,0,1.68-3.92s6.33,1.49,4.19,6.08c0,0,7.12,3.53,5.7,7.09C166.75,193.53,171.65,197.34,170.62,201.13Z" style="fill:none;stroke:#263238;stroke-linecap:round;stroke-linejoin:round"></path><path d="M149.13,196.83a14,14,0,0,0,11,.59" style="fill:none;stroke:#263238;stroke-linecap:round;stroke-linejoin:round"></path><path d="M164.17,195.05l-.66.52" style="fill:none;stroke:#263238;stroke-linecap:round;stroke-linejoin:round"></path><path d="M158.83,187.93a4.36,4.36,0,0,1-2.31.65" style="fill:none;stroke:#263238;stroke-linecap:round;stroke-linejoin:round"></path><path d="M147,184.23l26,26a23.29,23.29,0,0,1-32.84-32.84" style="fill:none;stroke:#263238;stroke-linecap:round;stroke-linejoin:round"></path><line x1="142.4" y1="179.68" x2="144.87" y2="182.16" style="fill:none;stroke:#263238;stroke-linecap:round;stroke-linejoin:round"></line><path d="M181.11,192.49A23.13,23.13,0,0,1,177.46,205" style="fill:none;stroke:#263238;stroke-linecap:round;stroke-linejoin:round"></path><path d="M175.54,207.6l-32.83-32.83A23.29,23.29,0,0,1,181,190" style="fill:none;stroke:#263238;stroke-linecap:round;stroke-linejoin:round"></path><path d="M149.29,400.37v5.8" style="fill:none;stroke:#263238;stroke-linecap:round;stroke-linejoin:round"></path><path d="M149.29,221.69C149,277,149,331,149.29,385.89" style="fill:none;stroke:#263238;stroke-linecap:round;stroke-linejoin:round"></path><path d="M166.2,368.79q.06,13.43.16,26.85" style="fill:none;stroke:#263238;stroke-linecap:round;stroke-linejoin:round"></path><path d="M166.36,237.77q-.54,60.35-.2,120" style="fill:none;stroke:#263238;stroke-linecap:round;stroke-linejoin:round"></path><path d="M166.36,221.69v4.55" style="fill:none;stroke:#263238;stroke-linecap:round;stroke-linejoin:round"></path><path d="M304.26,391.61a35.52,35.52,0,0,0-6,4" style="fill:none;stroke:#263238;stroke-linecap:round;stroke-linejoin:round"></path><path d="M321.65,385.79a71.8,71.8,0,0,0-10.31,2.73" style="fill:none;stroke:#263238;stroke-linecap:round;stroke-linejoin:round"></path><path d="M462.62,361.66C467,357,477,351,474,343c-7-3-13,1-17.71,5.68,1.39-4.25,2.28-1.66,0,0C461,339,464,329,462,318c-2-6-10-6-13.94-1.88a13.91,13.91,0,0,1,2.06-4.26,8.63,8.63,0,0,1-2.06,4.26C450,308,456,300,453,291c0-2,1-5-2-4-9,3-9,15-10.35,24.28a61.49,61.49,0,0,1,.59-7,30.87,30.87,0,0,1-.59,7c.89-13.87,2.1-28.78-2.22-42.24-1.14-3.53-5.05-11-9.19-6.18-3.86,4.45-4.15,12.16-4.49,17.7-.5,8.19-.78,16.4-.54,24.6-1.1-7.26-3.6-18.47-11.92-20.66-7.14-1.89-9.1,7.1-9.76,12.3a72,72,0,0,0-.17,15.18,10.91,10.91,0,0,0-11.91,3.21c-3.65,4.67-1.05,11.75,1.17,16.48-5.52-5.06-17-14.21-24.84-8.85C355,334,358,354,358.57,369.16c-3.16-1.84-.45-4,0,0-3.31-2.29-15.05-9.08-17.29-3.41s0,13.13,1.73,18.75c-9.13-.53-1.68-2.64,0,0a88.83,88.83,0,0,0-13.84.23" style="fill:none;stroke:#263238;stroke-linecap:round;stroke-linejoin:round"></path><path d="M303.33,335.51q.93,2.34,1.67,4.76c4.17-3.41,9.51-6.52,15-6.91-1.72-3.23-7.07-13.95-2.64-16.82,3.36-2.18,7.83,6.27,9.09,8.52-.38-6.68-.57-14,1.33-20.49C328,301,333,298,336,301c5,5,4,13,5.56,19.37,2.4-3-.23-3.45,0,0a35.47,35.47,0,0,1,8.47-8.16c6.61-4.13,8.52,2.34,8.54,8.16" style="fill:none;stroke:#263238;stroke-linecap:round;stroke-linejoin:round"></path><path d="M297.75,324.2c.69,1.19,1.37,2.39,2,3.6" style="fill:none;stroke:#263238;stroke-linecap:round;stroke-linejoin:round"></path><path d="M193.21,256.14C190,243,188,230,189,216h3c7,9,6,21,8.64,30.55a11.24,11.24,0,0,0-.26-3.89,11.62,11.62,0,0,0,.26,3.89C201,235,201,223,204,212c1-4,5-13,11-9,6,15,4,31,2.28,46,.48-1.73,1.27-3.82,1.15-5.62a16.29,16.29,0,0,0-1.15,5.62C220,239,223,223,235,221c4,10-1,21-3.81,30.65.38-.27,2.86-5.75,0,0,.38-.27,3.87-2.79,2.85-3.21s-2.64,2.58-2.85,3.21c5.74-4.89,12.88-9.7,20.62-10.3C256,241,260,242,262,245c5,10-5,19-8,28v3c15,12,29,25,39.29,41.14" style="fill:none;stroke:#263238;stroke-linecap:round;stroke-linejoin:round"></path><path d="M39.64,350.56c-1.94-3.52-3.22-7.38-1.9-10.29,3.16-7,15.42,9.77,15.42,9.77s-8.7-36.1-3.16-41.28,12.26,28.86,12.26,28.86-.8-39.15,17.8-33.83,13.06,44.1,13.06,44.1,9.26-10.68,15.11-6.33-6,40-6,40,7.12-9.13,11.08-5.77,0,14,0,14,15.16,1.74,21.22,5.82" style="fill:none;stroke:#263238;stroke-linecap:round;stroke-linejoin:round"></path><path d="M46.44,359.82s-1-1.1-2.43-2.83" style="fill:none;stroke:#263238;stroke-linecap:round;stroke-linejoin:round"></path></g><g id="freepik--Floor--inject-18"><line x1="24.68" y1="428.72" x2="472.58" y2="428.72" style="fill:none;stroke:#263238;stroke-linecap:round;stroke-linejoin:round"></line></g><g id="freepik--Dog--inject-18"><path d="M196.63,349.71c-.9,5.42-3.25,29.25-11.37,35.38-4.6,3.47-3.8,15.53-12.52,30.69-3,5.19,6.56,11.8,10.89,12.94h10.83s2.52-7.87-9.22-9.49c-2.65-.37,5.72-14.12,7.87-15.63,8-5.69,14.89-17.87,14.89-17.87s28.16-13.27,31.95-20.31Z" style="fill:#757575"></path><g style="clip-path:url(#freepik--clip-path-6--inject-18)"><path d="M240,365.42c-3.79,7-31.95,20.31-31.95,20.31s-6.84,12.18-14.89,17.87a9.07,9.07,0,0,0-1.7,1.9c-3.15,4.2-8.34,13.43-6.18,13.73,11.75,1.63,9.23,9.49,9.23,9.49H183.63c-4.34-1.14-13.88-7.75-10.89-12.94a74.1,74.1,0,0,0,6.83-16.24c2.11-7.13,2.91-12.36,5.69-14.45,8.12-6.14,10.47-30,11.36-35.38Z" style="fill:#fff;opacity:0.6000000000000001"></path><path d="M240,365.42c-3.79,7-31.95,20.31-31.95,20.31s-6.84,12.18-14.89,17.87a9.07,9.07,0,0,0-1.7,1.9,44.33,44.33,0,0,1-11.84-6c2.11-7.13,2.91-12.36,5.69-14.45,8.12-6.14,10.47-30,11.36-35.38Z" style="fill-opacity:0.7000000000000001;opacity:0.2"></path></g><path d="M196.63,349.71c-.9,5.42-3.25,29.25-11.37,35.38-4.6,3.47-3.8,15.53-12.52,30.69-3,5.19,6.56,11.8,10.89,12.94h10.83s2.52-7.87-9.22-9.49c-2.65-.37,5.72-14.12,7.87-15.63,8-5.69,14.89-17.87,14.89-17.87s28.16-13.27,31.95-20.31Z" style="fill:none;stroke:#263238;stroke-linecap:round;stroke-linejoin:round"></path><path d="M123.52,336.12s20,26.66,14.08,35.45c-7.31,10.85,3.25,11.72,4.33,38.25.22,5.34,3.84,8.21,6.4,12.08,2.71,4.11,2.06,6.82,4.25,6.82h13.18c3-4.27.45-7.79-7.58-13.48-4.08-2.88-1.63-33.59-2.71-36.83s28.7-21.22,26-42.29Z" style="fill:#757575"></path><g style="clip-path:url(#freepik--clip-path-7--inject-18)"><path d="M165.75,428.72H152.57c-2.18,0-1.53-2.71-4.24-6.82-2.56-3.88-6.18-6.75-6.4-12.08-.65-16.16-4.84-22.8-6.36-28-1-3.32-.82-6,2-10.26,5.93-8.79-14.07-35.46-14.07-35.46h58c2.7,21.07-27.08,39-26,42.29.5,1.46.26,8.58.24,16.19,0,9.17.24,19.07,2.47,20.65C166.22,420.93,168.74,424.44,165.75,428.72Z" style="fill:#fff;opacity:0.6000000000000001"></path><path d="M155.47,378.41c.5,1.46.26,8.58.24,16.19a150.2,150.2,0,0,1-20.14-12.76c-1-3.32-.82-6,2-10.26,5.93-8.79-14.07-35.46-14.07-35.46h58C184.17,357.19,154.39,375.16,155.47,378.41Z" style="fill-opacity:0.7000000000000001;opacity:0.2"></path></g><path d="M123.52,336.12s20,26.66,14.08,35.45c-7.31,10.85,3.25,11.72,4.33,38.25.22,5.34,3.84,8.21,6.4,12.08,2.71,4.11,2.06,6.82,4.25,6.82h13.18c3-4.27.45-7.79-7.58-13.48-4.08-2.88-1.63-33.59-2.71-36.83s28.7-21.22,26-42.29Z" style="fill:none;stroke:#263238;stroke-linecap:round;stroke-linejoin:round"></path><path d="M122.78,277.31c13.54-8.76,93.89,10.66,99.3,7.95s13.54.49,13.54.49,8.12-5.36,10.29-5.36,10-2.26,10-2.26,16,36.38,27.9,46.13c0,0-15.16,41.12-22.2,44.95,0,0,7.52,38,16.72,43.38s11.6,7.52,18.1,7,10.29,6.5,4.33,8.13l-25.5,1c-3.79-1.08-3.68-5.9-8.55-7s-8.35-11.37-10.52-13.54-20.1-23.15-24.44-36.63c0,0-13.47,3.05-40-17-14.29-10.81-50.9-9-50.9-9s-20.58,24.78-35.2,32.73-13.77,32.12-13.77,32.12V421.2s12.2,2.05,10.58,7.52H79.65s-6-3.73-3.25-17.27-.87-29.77-.71-33.2S89.4,371,90.48,359.11s.83-50.45,14.37-61.82c0,0-13.48-17.27-2.65-36.77s39.53-8.51,34.12,3.87c0,0-4.88-4.8-13,0S122.78,277.31,122.78,277.31Z" style="fill:#757575"></path><g style="clip-path:url(#freepik--clip-path-8--inject-18)"><path d="M303.31,426.06a4.15,4.15,0,0,1-2.54,1.64l-25.5,1c-3.79-1.09-3.68-5.9-8.55-7-1.8-.41-3.41-2.05-4.84-4.09-2.42-3.48-4.31-8.08-5.68-9.44-2.16-2.17-20.09-23.15-24.43-36.62,0,0-13.47,3.05-40-17-13.13-9.94-45.08-9.24-50.2-9.06l-.7,0s-20.59,24.78-35.21,32.72-13.75,32.13-13.75,32.13V421.2s12.19,2.05,10.56,7.52H79.65s-6-3.73-3.25-17.27c1.33-6.62,1.15-13.91.63-20-.53-6.35-1.42-11.45-1.34-13.2.12-2.46,7.13-5.1,11.47-10.81l0,0a15.77,15.77,0,0,0,3.3-8.29c1.09-11.93.83-50.46,14.37-61.82,0,0-13.49-17.28-2.66-36.77,6.66-12,20-12.46,28.11-8.19,5.1,2.68,8.12,7.25,6,12,0,0-4.87-4.8-13,0s-.54,12.92-.54,12.92c13.54-8.76,93.89,10.66,99.31,7.95s13.54.5,13.54.5,4-2.63,7.09-4.19a9.11,9.11,0,0,1,3.19-1.18c2.17,0,10-2.26,10-2.26s16,36.37,27.9,46.12c0,0-15.17,41.12-22.21,45,0,0,7.52,38,16.73,43.38s11.6,7.53,18.1,7C301.57,419.15,305,423.43,303.31,426.06Z" style="fill:#fff;opacity:0.8"></path><path d="M91,425.17c7.59,0,11.43,3.55,11.43,3.55H79.65s-6-3.73-3.25-17.27c1.33-6.62,1.15-13.91.63-20,1.26,3.31,2.73,6.15,4.25,7.38,4,3.19-2.89,20.93-1.81,23.46S83.44,425.17,91,425.17Z" style="fill-opacity:0.7000000000000001;opacity:0.2"></path><path d="M130.3,252.34c-10.16-.84-13.28,5.31-13.28,5.31a4.07,4.07,0,0,1,.36-5.06c-11.91,5.42-7.22,18.91-7.22,18.91-2.89-1.3-4.69-5.51-4.69-5.51-2.3,12,10.82,21.85,10.82,21.85-13,6-18.05,26.13-20.57,43.09s-1.45,31.77-8.53,36.48h0a15.77,15.77,0,0,0,3.3-8.29c1.09-11.93.83-50.46,14.37-61.82,0,0-13.49-17.28-2.66-36.77C108.85,248.56,122.21,248.07,130.3,252.34Z" style="fill-opacity:0.7000000000000001;opacity:0.2"></path><path d="M221.1,352.38c5.24,13.42,10.67,19.2,10.67,19.2s-13.47,3.05-40-17c-13.13-9.94-45.08-9.24-50.2-9.06,1.85-6.66.38-11.26.38-11.26s35.79-.69,53.85,9.94S221.1,352.38,221.1,352.38Z" style="fill-opacity:0.7000000000000001;opacity:0.2"></path><path d="M261.62,369.21c.54-12.28-5.24-19.87-.9-23.69s6,8.52,6,8.52c3.47-9,4.1-22.74,4.1-22.74s-13-11.92-23.46-34.31c-3.59-7.65-4.71-12.44-4.64-15.42a9.11,9.11,0,0,1,3.19-1.18c2.17,0,10-2.26,10-2.26s16,36.37,27.9,46.12C283.83,324.25,268.66,365.37,261.62,369.21Z" style="fill-opacity:0.7000000000000001;opacity:0.2"></path><path d="M303.31,426.06a4.15,4.15,0,0,1-2.54,1.64l-25.5,1c-3.79-1.09-3.68-5.9-8.55-7-1.8-.41-3.41-2.05-4.84-4.09,2.17.45,4,.53,4.84-.05,3.13-2.15,7,6.13,8.73,8.31s19.56-2.54,25.17-.73C301.56,425.47,302.46,425.77,303.31,426.06Z" style="fill-opacity:0.7000000000000001;opacity:0.2"></path></g><path d="M122.78,277.31c13.54-8.76,93.89,10.66,99.3,7.95s13.54.49,13.54.49,8.12-5.36,10.29-5.36,10-2.26,10-2.26,16,36.38,27.9,46.13c0,0-15.16,41.12-22.2,44.95,0,0,7.52,38,16.72,43.38s11.6,7.52,18.1,7,10.29,6.5,4.33,8.13l-25.5,1c-3.79-1.08-3.68-5.9-8.55-7s-8.35-11.37-10.52-13.54-20.1-23.15-24.44-36.63c0,0-13.47,3.05-40-17-14.29-10.81-50.9-9-50.9-9s-20.58,24.78-35.2,32.73-13.77,32.12-13.77,32.12V421.2s12.2,2.05,10.58,7.52H79.65s-6-3.73-3.25-17.27-.87-29.77-.71-33.2S89.4,371,90.48,359.11s.83-50.45,14.37-61.82c0,0-13.48-17.27-2.65-36.77s39.53-8.51,34.12,3.87c0,0-4.88-4.8-13,0S122.78,277.31,122.78,277.31Z" style="fill:none;stroke:#263238;stroke-linecap:round;stroke-linejoin:round"></path><path d="M231.76,371.57s-11.84-8.72-10.76-24.22" style="fill:none;stroke:#263238;stroke-linecap:round;stroke-linejoin:round"></path><path d="M208,352.38s6.27,11,12.93,13" style="fill:none;stroke:#263238;stroke-linecap:round;stroke-linejoin:round"></path><path d="M143,326.72c-2.7,4,1,9.32-2.16,18.8" style="fill:#fff;stroke:#263238;stroke-linecap:round;stroke-linejoin:round"></path><path d="M243.86,278.36s-1.42,8.81,9.66,25.07,22.85,28.27,28,28.5c0,0,3.53-3.53,6.13-3.76,0,0,4.27-1.45-12.23-26.39-5.16-7.81-26.6-27.22-26.6-27.22S247,274.56,243.86,278.36Z" style="fill:#263238"></path><path d="M245.91,274c-4.06,4-.25,20.77,14.47,26.37,0,0,18.2,23.13,23.44,23.92,10.83,1.62,26.54-8.13,26.54-10.83S321.81,300,321.81,300s9.13-6.1,4.25-12.6,2.06-14.38-2.42-15.2c0,0-8.54-4.57-10.94-11.11-.15-.43-1.8.32-1.8.32s.54-2.35-1.68-2.54c0,0,.37-2.52-1.64-2.11a12.82,12.82,0,0,0-7-7.06c-5.19-2.32-21.13-2.31-28.17,3.61S248.07,271.85,245.91,274Z" style="fill:#757575"></path><g style="clip-path:url(#freepik--clip-path-9--inject-18)"><path d="M321.8,300s-11.44,10.68-11.44,13.39c0,1.52-4.92,5.23-11.13,7.93-4.9,2.12-10.63,3.61-15.4,2.9-5.26-.78-23.45-23.9-23.45-23.9-12.39-4.72-17-17.37-15.79-23.63a5.19,5.19,0,0,1,1.32-2.75c2.16-2.11,19.49-14.7,26.54-20.63s23-5.93,28.17-3.62a12.93,12.93,0,0,1,7,7.07c2-.41,1.64,2.11,1.64,2.11,2.22.19,1.69,2.53,1.69,2.53s1.64-.74,1.79-.32c2.39,6.55,10.94,11.12,10.94,11.12,4.47.82-2.45,8.71,2.42,15.2S321.8,300,321.8,300Z" style="fill:#fff;opacity:0.8"></path><path d="M299.23,321.35c-4.9,2.12-10.63,3.61-15.4,2.9-5.26-.78-23.45-23.9-23.45-23.9-12.39-4.72-17-17.37-15.79-23.63.71,5,2.51,10.68,6.68,14.76,9.11,8.87,14.4,6.51,17.66,7.32s2.44,12.46,10.28,16,1.28-6.77,6.73-10C290.78,301.88,289,316,299.23,321.35Z" style="fill-opacity:0.7000000000000001;opacity:0.2"></path></g><path d="M245.91,274c-4.06,4-.25,20.77,14.47,26.37,0,0,18.2,23.13,23.44,23.92,10.83,1.62,26.54-8.13,26.54-10.83S321.81,300,321.81,300s9.13-6.1,4.25-12.6,2.06-14.38-2.42-15.2c0,0-8.54-4.57-10.94-11.11-.15-.43-1.8.32-1.8.32s.54-2.35-1.68-2.54c0,0,.37-2.52-1.64-2.11a12.82,12.82,0,0,0-7-7.06c-5.19-2.32-21.13-2.31-28.17,3.61S248.07,271.85,245.91,274Z" style="fill:none;stroke:#263238;stroke-linecap:round;stroke-linejoin:round"></path><path d="M300.62,251.42c-4.61-1.63-11.65-1.57-12.33,4.76s0,11.75-2.35,13.92" style="fill:none;stroke:#263238;stroke-linecap:round;stroke-linejoin:round"></path><path d="M272,250.52c-4.83-5.33-23.42,6.81-20.44,16.6s-.32,18.05,4.6,18.05c0,0,0,9,10.52,10.38s8.29-41.83,15.41-46.36c0,0,.61-1.32-3.18-.9A19.76,19.76,0,0,0,272,250.52Z" style="fill:#4A8F4D;stroke:#263238;stroke-linecap:round;stroke-linejoin:round"></path><path d="M256.2,285.17c7.31,1.72,13.54,4.7,17.06-11.28s1.35-19.78,1.35-19.78" style="fill:none;stroke:#263238;stroke-linecap:round;stroke-linejoin:round"></path><path d="M326.06,287.43c-4.87-6.49,2.05-14.38-2.42-15.2l-.18-.1a4,4,0,0,0,.3-2.71c-.42-1.3-3.19,2.5-4.46-2.43-.74-2.85-4.55-4.18-6-4.59a12.26,12.26,0,0,1-.56-1.29c-.15-.42-1.79.32-1.79.32-1.88,1.7-3.1,5.2-3.67,7.2-.07-2.37-.91-4.07-2.3-4l-.44-1.22c3.87-2.55.75-7.51-.75-9.18,0,0-2.82-1.09-6.38,2.57s-3,14.36-5.42,16c0,0,8.89,1.63,6.74,6s-7.29,11.92-2.68,15.72.77,7.58,2.68,11.91c1.52,3.43,2.71,10,1.58,13.43a4,4,0,0,1-1.56,1.75c6.46-2.71,11.65-6.59,11.65-8.15,0-2.71,11.44-13.39,11.44-13.39S330.93,293.93,326.06,287.43Z" style="fill:#4A8F4D"></path><g style="clip-path:url(#freepik--clip-path-10--inject-18)"><path d="M313.79,308.21c-1.93,2.19-3.43,4.23-3.43,5.21-8.67-1.49-7.89-10.07-7.89-10.07C303.07,305.71,308.89,310.56,313.79,308.21Z" style="fill-opacity:0.7000000000000001;opacity:0.2"></path><path d="M321.8,300s-1.85,1.73-4.06,4c4.94-9.63-.8-16.23,1-21.75a80.21,80.21,0,0,1,5.1-11.59,6,6,0,0,1-.4,1.47l.18.1c4.47.82-2.45,8.71,2.42,15.2S321.8,300,321.8,300Z" style="fill-opacity:0.7000000000000001;opacity:0.2"></path><path d="M297.81,266.76c-1.69-5,.89-8.81,4.64-8.39S305,256,305,256s3.3,5.11-1.28,8.12c0,0,2.46-.27,1.28,3.88S300.08,273.45,297.81,266.76Z" style="fill-opacity:0.7000000000000001;opacity:0.2"></path></g><path d="M326.06,287.43c-4.87-6.49,2.05-14.38-2.42-15.2l-.18-.1a4,4,0,0,0,.3-2.71c-.42-1.3-3.19,2.5-4.46-2.43-.74-2.85-4.55-4.18-6-4.59a12.26,12.26,0,0,1-.56-1.29c-.15-.42-1.79.32-1.79.32-1.88,1.7-3.1,5.2-3.67,7.2-.07-2.37-.91-4.07-2.3-4l-.44-1.22c3.87-2.55.75-7.51-.75-9.18,0,0-2.82-1.09-6.38,2.57s-3,14.36-5.42,16c0,0,8.89,1.63,6.74,6s-7.29,11.92-2.68,15.72.77,7.58,2.68,11.91c1.52,3.43,2.71,10,1.58,13.43a4,4,0,0,1-1.56,1.75c6.46-2.71,11.65-6.59,11.65-8.15,0-2.71,11.44-13.39,11.44-13.39S330.93,293.93,326.06,287.43Z" style="fill:none;stroke:#263238;stroke-linecap:round;stroke-linejoin:round"></path><path d="M312.66,262.25s5.71,1.17,6.63,4.74c1.28,4.93,4,1.14,4.47,2.43,1.27,3.82-7.31,10.11-5.14,19.76,3.92,17.47-8.8,25.33-17.2,12.74" style="fill:none;stroke:#263238;stroke-linecap:round;stroke-linejoin:round"></path><path d="M310.9,264.5c-.19,2.72,5,1.13,5.45-.16C317.17,262,311.49,256.25,310.9,264.5Z" style="fill:#263238"></path><path d="M304.92,264.66c3.14-.25,3.46,8.42-1.17,13.7" style="fill:none;stroke:#263238;stroke-linecap:round;stroke-linejoin:round"></path><path d="M304.28,263c1.21,2.1.92,4.55-.66,5.46s-3.84-.06-5.05-2.16-.92-4.55.65-5.46S303.06,260.91,304.28,263Z" style="fill:#263238"></path><path d="M275.27,257.64s1.79,26-5.94,31.14-15.3,1.76-17.06-.94.8-10.56.8-10.56-.3,5,1.37,7.31a31.26,31.26,0,0,0,9.75,1.89C269.74,286.36,273,280.39,275.27,257.64Z" style="fill-opacity:0.7000000000000001;opacity:0.2"></path></g></svg>