<svg xmlns="http://www.w3.org/2000/svg" version="1.1" xmlns:xlink="http://www.w3.org/1999/xlink" xmlns:svgjs="http://svgjs.dev/svgjs" width="2000" height="1060" viewBox="0 0 2000 1060"><g transform="matrix(1,0,0,1,-1.2120800792657747,-0.02610534017367172)"><svg viewBox="0 0 396 210" data-background-color="#ffffff" preserveAspectRatio="xMidYMid meet" height="1060" width="2000" xmlns="http://www.w3.org/2000/svg" xmlns:xlink="http://www.w3.org/1999/xlink"><g id="tight-bounds" transform="matrix(1,0,0,1,0.23999216676185142,0.005171812675911269)"><svg viewBox="0 0 395.52 209.98965637464818" height="209.98965637464818" width="395.52"><g><svg viewBox="0 0 395.52 209.98965637464818" height="209.98965637464818" width="395.52"><g transform="matrix(1,0,0,1,0,156.24265783877703)"><svg viewBox="0 0 395.52 53.74699853587116" height="53.74699853587116" width="395.52"><g id="textblocktransform"><svg viewBox="0 0 395.52 53.74699853587116" height="53.74699853587116" width="395.52" id="textblock"><g><svg viewBox="0 0 395.52 53.74699853587116" height="53.74699853587116" width="395.52"><g transform="matrix(1,0,0,1,0,0)"><svg width="395.52" viewBox="5.03000020980835 -35.77000045776367 266.7699890136719 36.26000213623047" height="53.74699853587116" data-palette-color="#359672"><path d="M26.32 0L5.03 0 5.03-35.77 26.78-35.77 25.98-31.47 11.08-31.47 11.08-20.68 24.27-20.68 23.49-16.5 11.08-16.5 11.08-4.3 27.12-4.3 26.32 0ZM37.81 0L31.93 0 45.19-17.97 32.96-35.77 40.01-35.77 46.09-26.07 48.36-21.9 48.85-21.9 51.32-26.07 57.71-35.77 63.62-35.77 51.1-18.58 64.06 0 57.03 0 50.29-10.42 48-14.4 47.51-14.4 45.09-10.5 37.81 0ZM84.76-31.47L84.76 0 78.68 0 78.68-31.47 67.08-31.47 67.89-35.77 96.72-35.77 95.92-31.47 84.76-31.47ZM124.38 0L103.09 0 103.09-35.77 124.85-35.77 124.04-31.47 109.15-31.47 109.15-20.68 122.33-20.68 121.55-16.5 109.15-16.5 109.15-4.3 125.19-4.3 124.38 0ZM138.34 0L133.14 0 133.14-35.77 141.69-35.77 156.9-12.99 159.41-8.28 159.9-8.28 159.58-13.6 159.58-35.77 164.78-35.77 164.78 0 159.1 0 140.81-27.27 138.52-31.79 138.03-31.79 138.34-26.59 138.34 0ZM206.6 0L185.31 0 185.31-35.77 207.07-35.77 206.26-31.47 191.37-31.47 191.37-20.68 204.55-20.68 203.77-16.5 191.37-16.5 191.37-4.3 207.41-4.3 206.6 0ZM218.51 0.49L218.51 0.49Q217.66 0.49 216.91 0.16 216.17-0.17 215.62-0.72 215.07-1.27 214.75-2.01 214.44-2.76 214.44-3.59L214.44-3.59Q214.44-4.44 214.77-5.21 215.09-5.98 215.66-6.56 216.22-7.13 216.96-7.46 217.71-7.79 218.56-7.79L218.56-7.79Q219.42-7.79 220.16-7.46 220.91-7.13 221.45-6.56 222-5.98 222.32-5.22 222.64-4.47 222.64-3.61L222.64-3.61Q222.64-2.76 222.31-2.01 221.98-1.27 221.42-0.72 220.86-0.17 220.11 0.16 219.37 0.49 218.51 0.49ZM245.39-9.5L253.91-35.77 259.6-35.77 246.76 0 239.95 0 227.13-35.77 233.7-35.77 242.22-9.5 243.58-4.44 244.05-4.44 245.39-9.5ZM267.68 0.49L267.68 0.49Q266.82 0.49 266.08 0.16 265.33-0.17 264.78-0.72 264.24-1.27 263.92-2.01 263.6-2.76 263.6-3.59L263.6-3.59Q263.6-4.44 263.93-5.21 264.26-5.98 264.82-6.56 265.38-7.13 266.13-7.46 266.87-7.79 267.73-7.79L267.73-7.79Q268.58-7.79 269.33-7.46 270.07-7.13 270.62-6.56 271.17-5.98 271.49-5.22 271.8-4.47 271.8-3.61L271.8-3.61Q271.8-2.76 271.47-2.01 271.14-1.27 270.58-0.72 270.02-0.17 269.28 0.16 268.53 0.49 267.68 0.49Z" opacity="1" transform="matrix(1,0,0,1,0,0)" fill="#359672" class="wordmark-text-0" data-fill-palette-color="primary" id="text-0"></path></svg></g></svg></g></svg></g></svg></g><g transform="matrix(1,0,0,1,132.3270475069658,0)"><svg viewBox="0 0 130.8659049860684 130.8659049860684" height="130.8659049860684" width="130.8659049860684"><g><svg></svg></g><g id="icon-0"><svg viewBox="0 0 130.8659049860684 130.8659049860684" height="130.8659049860684" width="130.8659049860684"><g><path d="M0 65.433c0-36.138 29.295-65.433 65.433-65.433 36.138 0 65.433 29.295 65.433 65.433 0 36.138-29.295 65.433-65.433 65.433-36.138 0-65.433-29.295-65.433-65.433zM65.433 126.019c33.461 0 60.586-27.125 60.586-60.586 0-33.461-27.125-60.586-60.586-60.586-33.461 0-60.586 27.125-60.586 60.586 0 33.461 27.125 60.586 60.586 60.586z" data-fill-palette-color="tertiary" fill="#24996d" stroke="transparent"></path></g><g transform="matrix(1,0,0,1,27.567023318969525,32.8825864729893)"><svg viewBox="0 0 75.73185834812934 65.10073204008978" height="65.10073204008978" width="75.73185834812934"><g><svg xmlns="http://www.w3.org/2000/svg" xmlns:xlink="http://www.w3.org/1999/xlink" version="1.1" x="0" y="0" viewBox="3.999317169189453 10.00149154663086 92.36262512207031 79.39689636230469" enable-background="new 0 0 100 100" xml:space="preserve" height="65.10073204008978" width="75.73185834812934" class="icon-s-0" data-fill-palette-color="accent" id="s-0"><path d="M29.841 65.861" fill="#359672" data-fill-palette-color="accent"></path><path d="M90.518 81.604c-0.055-0.988-1.885-1.83-2.553-2.603-0.783-0.909-1.287-2.241-1.713-3.348-0.223-0.58-0.123-0.567-0.572-1.762-0.711-0.367-2.082-0.105-2.84-0.2-1.131-0.141-2.443-0.253-3.539-0.572-0.119 1.285 0.926 1.916 1.443 2.917 0.484 0.934 0.566 2.026 1.148 2.95 0.848 1.341 1.994 2.964 3.516 3.585 1.168 0.479 3.162 0.952 4.309 0.182C90.316 82.349 90.537 81.967 90.518 81.604z" fill="#359672" data-fill-palette-color="accent"></path><path d="M36.192 73.978c0.048-0.507 0.005-1.168 0.188-1.681 0.313-0.883 0.442-1.869 0.72-2.771 0.127-0.414 1.713-4.617 1.538-4.722 3.375 1.997 5.539 1.985 9.553 1.999 6.819 0.022 11.587-0.92 12.651-1.17 3.965 4 7.582 6.316 8.791 8.577 0.301 0.995 0.455 1.53 0.404 2.477-0.094 0.876-2.879 2.503-6.492 2.491-0.156-0.001-3.014 0.474-2.352 2.119 1.85 0.975 5.262 0.015 6.539-0.206 1.777-0.306 3.963-0.864 5.449-1.92 0.633-0.451 1-0.985 1.76-1.27 2.896-1.296 0.529-3.077-0.586-4.779-0.715-1.091-1.186-2.282-1.422-3.53-0.127-0.682-2.324-2.568-2.836-3.365-1.051-1.635-2.635-3.984-1.846-6.015-0.543 1.782 2.066 4.294 3.145 5.471 2.016 2.198 4.537 4.979 7.336 6.161 3.117 1.318 6.869 0.446 9.928 1.305 1.814 0.51 4.078 1.907 4.246 3.22 0.221 1.754-0.051 3.361-0.131 5.077-0.387 1.338-1.684 0.694-2.008 1.062-0.768 0.648-1.637 2.192-1.086 2.21 3.418 0.105 3.48-0.14 4.449-0.683 0.186-0.104 0.359-0.438 0.623-0.772 0.17-0.218 0.713-0.07 0.867-0.346 0.287-0.51 0.229-1.408 0.277-1.961 0.063-0.682 0.285-1.917 0.395-3.457 0.182-2.456-0.053-3.839-0.016-4.637 0.152-3.301-2.363-2.906-4.943-3.897-1.563-0.599-3.148-1.782-4.182-4.378-1.449-3.645-0.291-8.466-1.623-11.98-1.891-4.987-6.986-8.229-12.863-10.126-3.791-1.223-7.998-1.716-12.09-2.324-2.174-0.323-7.09-0.146-9.268-0.437-3.49-0.468-4.381-1.057-8.228-1.836-2.649-0.537-3.439-0.883-5.551-2.468-2.477-1.858-3.979-2.228-5.524-5.172-1.242-2.364-2.135-5.195-3.081-7.512-0.092-0.226-0.188-0.451-0.284-0.676-1.272-2.927-2.904-5.712-3.76-8.805-0.313-1.132 0.759-4.353-1.256-2.375-0.961 0.943-1.162 2.475-1.875 3.578-0.71-0.714-1.026-1.771-1.279-2.717-0.123-0.458-0.17-0.982-0.365-1.415-0.479-1.068-1.233 0.835-1.406 1.317-0.328 0.912-0.529 1.908-0.58 2.876-0.064 1.224-0.123 2.404 0.179 3.603-1.056 0.391-1.652 0.958-2.47 1.506-0.838 0.56-1.816 0.817-2.521 1.59-0.894 0.978-0.186 1.895-0.852 2.852-0.778 1.115-3.138 1.875-4.36 2.457-0.825 0.393-3.976 1.211-4.091 2.354-0.09 0.895 1.496 1.98 1.958 2.536 1.373 1.653 3.634 2.736 5.781 2.392 3.575-0.574 3.344-0.233 4.092 3.002 0.893 3.869 2.991 7.412 3.163 11.299 0.043 0.971 0.467 1.624 0.653 2.547 0.675 3.361 2.449 6.672 4.754 9.191 2.397 2.619 4.248 2.637 5.477 6.071 0.926 2.585 0.871 6.213 0.806 8.931-0.022 0.952 0.054 1.907 0.07 2.858 0.01 0.583 0.011 1.166-0.02 1.749-0.029 0.566-0.203 1.077-0.249 1.633-0.48 0.049-0.945 0.229-1.452 0.27-0.72 0.058-1.419 0.314-1.741 1.007-0.156 0.335-0.191 0.649 0.188 0.811 0.219 0.094 2.373 0.021 2.382-0.084-0.066 0.711-0.481 1.676-1.037 2.136-0.641 0.53-1.565 0.479-2.313 0.765-0.977 0.376-3.054 2.353-1.573 3.229 0.598 0.353 1.995 0.097 2.618-0.044 1.57-0.355 2.695-1.199 4.015-2.078 0.62-0.411 1.151-0.946 1.532-1.588 0.234-0.392 0.519-0.908 0.663-1.338 0.126-0.377-0.085-0.708 0.404-0.869 0.706-0.232 0.785-0.575 1.073-1.239 0.167-0.386 0.255-0.767 0.337-1.175 0.199-0.985 0.19-2 0.405-2.981L36.192 73.978zM16.447 24.151c0.118 0.105 0.188 0.231 0.112 0.391-0.461 0.968-3.901 0.048-2.431-1.617 0.797-0.902 1.306 0.348 1.84 0.889C16.068 23.915 16.297 24.017 16.447 24.151z" fill="#359672" data-fill-palette-color="accent"></path><path d="M35.94 74.612" fill="#359672" data-fill-palette-color="accent"></path></svg></g></svg></g></svg></g></svg></g><g></g></svg></g><defs></defs></svg><rect width="395.52" height="209.98965637464818" fill="none" stroke="none" visibility="hidden"></rect></g></svg></g></svg>